# xmcd
#
# Track frame offsets: 
#        150
#        24382
#        42470
#        65972
#        80607
#        96645
#        115362
#        138220
#        158557
#        175982
#
# Disc length: 2664 seconds
#
# Revision: 5
# Processed by: cddbd v1.5.2PL0 Copyright (c) Steve Scherf et al.
# Submitted via: ExactAudioCopy v1.0b3
#
DISCID=8b0a660a
DTITLE=DAVE STEWART - SLYFI
DYEAR=1998
DGENRE=Pop Rock
TTITLE0=Happy To Be Here 
TTITLE1=My Place 
TTITLE2=Leaving This Earth
TTITLE3=Picadilly Picnic 
TTITLE4=Stars On Sunday 
TTITLE5=Even The Bad Times (Were Good Times)
TTITLE6=Good For Nothing
TTITLE7=Royal Infirmary 
TTITLE8=A.O.W.L. 
TTITLE9=Jack Of All Trades 
EXTD=
EXTT0=
EXTT1=
EXTT2=
EXTT3=
EXTT4=
EXTT5=
EXTT6=
EXTT7=
EXTT8=
EXTT9=
PLAYORDER=
